<svg fill="none" height="2000" viewBox="0 0 2000 2000" width="2000" xmlns="http://www.w3.org/2000/svg">
    <rect fill="#292B2E" height="2000" rx="416" width="2000"/>
    <path
        d="M601.392 1307.39C576.203 1332.58 576.203 1373.42 601.392 1398.61C626.58 1423.8 667.42 1423.8 692.608 1398.61L601.392 1307.39ZM1418.5 646C1418.5 610.378 1389.62 581.5 1354 581.5H773.5C737.878 581.5 709 610.378 709 646C709 681.622 737.878 710.5 773.5 710.5H1289.5V1226.5C1289.5 1262.12 1318.38 1291 1354 1291C1389.62 1291 1418.5 1262.12 1418.5 1226.5V646ZM692.608 1398.61L1399.61 691.608L1308.39 600.392L601.392 1307.39L692.608 1398.61Z"
        fill="white"/>
</svg>
